<svg id="Capa_1" data-name="Capa 1" xmlns="http://www.w3.org/2000/svg" viewBox="0 0 800 800"><defs><style>.cls-1{fill:#ed766c;}.cls-2{fill:#ffb600;}.cls-3{fill:#fff;}</style></defs><polygon class="cls-1" points="26.99 411.85 26.99 602.38 81.43 602.38 81.43 534.34 81.43 411.85 26.99 411.85"/><polygon class="cls-1" points="149.48 479.9 108.65 479.9 81.43 534.34 149.48 534.34 149.48 602.38 203.92 602.38 203.92 411.85 149.48 411.85 149.48 479.9"/><path class="cls-1" d="M326.4,411.85H217.53V602.38H272V466.29H326.4q13.62,0,13.61,13.61v13.61H299.19L272,548H326.4a108.34,108.34,0,0,0,13.61-.82v55.25h54.44V479.9Q394.45,411.85,326.4,411.85Z"/><path class="cls-1" d="M705.21,411.85H596.33V590.29l-52.26-46.43q38.65-12.66,38.65-64v-68H405.8V602.38h54.44V548l68,54.43H650.77V466.29h54.44q13.6,0,13.61,13.61v13.61H678L650.77,548h54.44a108.45,108.45,0,0,0,13.61-.82v55.25h54.44V479.9Q773.26,411.85,705.21,411.85Zm-176.93,68q0,13.61-13.61,13.61H487.46l-27.22,53.07V466.29h68Z"/><path class="cls-2" d="M216.52,381.85c5.67-63.4,34.21-113.63,88-148.41a187,187,0,0,1,197.1-3.4c56.59,34,86.9,84.87,93.49,150.11l-.67.55c-2.79-2.16-5.67-4.22-8.36-6.51-9.12-7.75-18.05-15.75-27.31-23.34-7.25-5.94-14.74-11.63-22.4-17a65.41,65.41,0,0,0-24.57-10.25,56.88,56.88,0,0,1-15.62-6.22c-3.91-2.15-7.8-4.35-11.57-6.73a15.53,15.53,0,0,0-12.72-1.68c-5.7,1.51-10.66.19-15.25-3-14.13-9.86-29.63-17.23-44.88-25.06-5-2.58-10.1-2.1-15,.22-3.61,1.72-7,4-10.44,6-9.71,5.55-19.32,11.3-29.18,16.56-6.47,3.46-13.7,4-21,3.8-5-.12-10-.52-14.89.09-6.53.8-11.66,4.76-16.35,9.15-3.73,3.5-7.35,7.12-11,10.69-5.28,5.18-12,8.32-17.85,12.69-10.27,7.67-20.37,15.55-30.48,23.42a197.7,197.7,0,0,1-26.4,17.74c-.71.4-1.45.76-2.17,1.13Z"/><path class="cls-3" d="M595.2,393.4h-2.37q-91.71,0-183.42,0a17.27,17.27,0,0,1-3.66-.35c-1.24-.26-1.7-1.15-.63-2.06a54.16,54.16,0,0,1,5-3.69c3.32-2.24,6.83-4.24,10-6.67,4.71-3.6,4.24-6.41-1.3-8.45-4.18-1.54-8.47-2.79-12.68-4.28a33.58,33.58,0,0,1-5.12-2.31c-6.9-3.82-9.4-9.61-7.11-17.16a45.44,45.44,0,0,1,3.78-8.25c2.9-5.33,6.45-10.37,8.87-15.9,4.23-9.71,3.57-19.85,1.18-29.93-.43-1.8-1-3.58-1.53-5.71,3.88,1.95,7.44,3.72,11,5.52,3.35,1.7,6.64,3.51,10,5.14a68,68,0,0,1,16.37,11.34c9.31,8.55,20.08,15.12,30.78,21.62,6,3.66,13.21,5.48,19.93,8a73.73,73.73,0,0,0,21.64,5c3.73.22,7.39,1.72,11.17,2.49-1.71-.9-3.42-1.78-5.12-2.69-8.71-4.67-18.12-7.59-27.34-11-8.06-3-15-7.83-21.3-13.63.17-.14.28-.27.32-.25a147.21,147.21,0,0,0,37.67,12.93c10.28,2.18,19.22,7.25,27.31,13.78q23,18.51,45.77,37.22c3.41,2.78,6.77,5.63,10.14,8.45A7.05,7.05,0,0,1,595.2,393.4Z"/></svg>